{"title":"IndyLights Round 15. Mid Ohio. Race 2. 1080i RUS/ENG","uid":15473871,"size":5162884952,"categoryP":"video","categoryS":"hd___tv_shows","magnet":"?xt=urn:btih:fbf710661a1ac6db5605ea80c4d30a4259adb764&amp;dn=IndyLights+Round+15.+Mid+Ohio.+Race+2.+1080i+RUS%2FENG&amp;tr=udp%3A%2F%2Ftracker.leechers-paradise.org%3A6969&amp;tr=udp%3A%2F%2Fzer0day.ch%3A1337&amp;tr=udp%3A%2F%2Fopen.demonii.com%3A1337&amp;tr=udp%3A%2F%2Ftracker.coppersurfer.tk%3A6969&amp;tr=udp%3A%2F%2Fexodus.desync.com%3A6969","seeders":0,"leechers":0,"uploader":"egor0tech","files":1,"time":1470167146,"description":"IndyLights Round 15. Mid Ohio. Race 2. Viasat Sport/NBCSN 1080i RUS/ENG\r\n\r\nTECHNICAL:\r\nVideo: H264, 1920x1080i, 25 fps, 8 980 Kbps\r\nAudio: MP2 2.0, 48.0 KHz, 192 kb/s \r\n\r\nMEDIAINFO:\r\nGeneral\r\nID : 17 (0x11)\r\nComplete name : K:IndyLightINDYLIGHTS_R15_MID_OHIO_RACE_2_VIASAT_SPORT_HD.ts\r\nFormat : MPEG-TS\r\nFile size : 4.81 GiB\r\nDuration : 1h 11mn\r\nOverall bit rate mode : Variable\r\nOverall bit rate : 9 646 Kbps\r\nVideo\r\nID : 306 (0x132)\r\nMenu ID : 17106 (0x42D2)\r\nFormat : AVC\r\nFormat/Info : Advanced Video Codec\r\nFormat profile :   \r\nFormat settings, CABAC : Yes\r\nFormat settings, ReFrames : 4 frames\r\nCodec ID : 27\r\nDuration : 1h 11mn\r\nBit rate : 8 781 Kbps\r\nWidth : 1 920 pixels\r\nHeight : 1 080 pixels\r\nDisplay aspect ratio : 16:9\r\nFrame rate : 25.000 fps\r\nStandard : Component\r\nColor space : YUV\r\nChroma subsampling : 4:2:0\r\nBit depth : 8 bits\r\nScan type : Interlaced\r\nScan type, store method : Separated fields\r\nScan order : Top Field First\r\nBits/(Pixel*Frame) : 0.169\r\nStream size : 4.38 GiB (91%)\r\nColor range : Limited\r\nColor primaries : BT.709\r\nTransfer characteristics : BT.709\r\nMatrix coefficients : BT.709\r\nAudio #1\r\nID : 406 (0x196)\r\nMenu ID : 17106 (0x42D2)\r\nFormat : MPEG Audio\r\nFormat version : Version 1\r\nFormat profile : Layer 2\r\nCodec ID : 4\r\nDuration : 1h 11mn\r\nBit rate mode : Constant\r\nBit rate : 192 Kbps\r\nChannel(s) : 2 channels\r\nSampling rate : 48.0 KHz\r\nCompression mode : Lossy\r\nDelay relative to video : -12ms\r\nStream size : 98.0 MiB (2%)\r\nLanguage : Russian\r\nLanguage, more info : Clean effects\r\nAudio #2\r\nID : 416 (0x1A0)\r\nMenu ID : 17106 (0x42D2)\r\nFormat : MPEG Audio\r\nFormat version : Version 1\r\nFormat profile : Layer 2\r\nCodec ID : 4\r\nDuration : 1h 11mn\r\nBit rate mode : Constant\r\nBit rate : 192 Kbps\r\nChannel(s) : 2 channels\r\nSampling rate : 48.0 KHz\r\nCompression mode : Lossy\r\nDelay relative to video : -12ms\r\nStream size : 98.0 MiB (2%)\r\nLanguage : English\r\nLanguage, more info : Clean effects","torrent":{"xt":"urn:btih:fbf710661a1ac6db5605ea80c4d30a4259adb764","amp;dn":"IndyLights+Round+15.+Mid+Ohio.+Race+2.+1080i+RUS%2FENG","amp;tr":["udp%3A%2F%2Ftracker.leechers-paradise.org%3A6969","udp%3A%2F%2Fzer0day.ch%3A1337","udp%3A%2F%2Fopen.demonii.com%3A1337","udp%3A%2F%2Ftracker.coppersurfer.tk%3A6969","udp%3A%2F%2Fexodus.desync.com%3A6969"],"infoHash":"fbf710661a1ac6db5605ea80c4d30a4259adb764","infoHashBuffer":{"type":"Buffer","data":[251,247,16,102,26,26,198,219,86,5,234,128,196,211,10,66,89,173,183,100]},"announce":[],"urlList":[]}}